<?xml version="1.0" encoding="utf-8"?>
<!-- Generator: Adobe Illustrator 16.0.3, SVG Export Plug-In . SVG Version: 6.00 Build 0)  -->
<!DOCTYPE svg PUBLIC "-//W3C//DTD SVG 1.1//EN" "http://www.w3.org/Graphics/SVG/1.1/DTD/svg11.dtd">
<svg version="1.1" id="Livello_1" xmlns="http://www.w3.org/2000/svg" xmlns:xlink="http://www.w3.org/1999/xlink" x="0px" y="0px"
	 width="574px" height="636px" viewBox="0 0 574 636" enable-background="new 0 0 574 636" xml:space="preserve">
<g>
	<polyline fill="none" stroke="#000000" stroke-width="17.5522" stroke-linejoin="bevel" stroke-miterlimit="10" points="
		131.732,127.955 131.732,76.418 234.809,24.88 337.884,24.88 440.959,76.418 440.959,127.955 440.959,76.418 131.732,76.418 
		234.809,76.418 212.714,230.672 158.218,611.12 398.177,489.612 190.499,385.755 368.052,283.165 220.054,179.431 337.884,76.418 
		234.809,24.88 339.315,24.88 236.24,76.418 354.072,179.431 206.074,283.165 383.627,385.755 175.948,489.612 415.906,611.12 
		361.409,230.672 339.315,76.418 	"/>
	
		<line fill="none" stroke="#000000" stroke-width="17.5522" stroke-linejoin="bevel" stroke-miterlimit="10" x1="131.732" y1="334.106" x2="131.732" y2="284.396"/>
	<polyline fill="none" stroke="#000000" stroke-width="17.5522" stroke-linejoin="bevel" stroke-miterlimit="10" points="
		545.661,334.106 545.661,284.397 361.288,230.672 545.661,284.397 28.339,284.396 212.714,230.672 28.339,284.396 28.339,334.106 	
		"/>
	
		<line fill="none" stroke="#000000" stroke-width="17.5522" stroke-linejoin="bevel" stroke-miterlimit="10" x1="440.959" y1="284.397" x2="440.959" y2="334.106"/>
</g>
</svg>
